<svg width="3835" height="1000" viewBox="0 0 3835 1000" fill="none" xmlns="http://www.w3.org/2000/svg">
<circle cx="500" cy="500" r="500" fill="black"/>
<path d="M392.214 281.636L497.683 613.17H501.731L607.413 281.636H709.686L559.259 718H440.367L289.728 281.636H392.214Z" fill="white"/>
<path d="M1329.94 283.636L1435.41 615.17H1439.45L1545.14 283.636H1647.41L1496.98 720H1378.09L1227.45 283.636H1329.94ZM1742.02 726.179C1721.14 726.179 1702.53 722.557 1686.2 715.312C1669.86 707.926 1656.94 697.06 1647.42 682.713C1638.04 668.224 1633.36 650.185 1633.36 628.594C1633.36 610.412 1636.7 595.142 1643.37 582.784C1650.05 570.426 1659.14 560.483 1670.64 552.955C1682.15 545.426 1695.22 539.744 1709.85 535.909C1724.62 532.074 1740.1 529.375 1756.3 527.812C1775.33 525.824 1790.67 523.977 1802.32 522.273C1813.97 520.426 1822.42 517.727 1827.68 514.176C1832.93 510.625 1835.56 505.369 1835.56 498.409V497.131C1835.56 483.636 1831.3 473.196 1822.77 465.81C1814.39 458.423 1802.46 454.73 1786.98 454.73C1770.64 454.73 1757.65 458.352 1747.99 465.597C1738.33 472.699 1731.94 481.648 1728.81 492.443L1644.86 485.625C1649.12 465.739 1657.5 448.551 1670 434.062C1682.5 419.432 1698.63 408.21 1718.37 400.398C1738.26 392.443 1761.27 388.466 1787.41 388.466C1805.59 388.466 1822.99 390.597 1839.61 394.858C1856.37 399.119 1871.21 405.724 1884.14 414.673C1897.21 423.622 1907.5 435.128 1915.03 449.19C1922.56 463.111 1926.33 479.801 1926.33 499.261V720H1840.25V674.616H1837.69C1832.43 684.844 1825.4 693.864 1816.6 701.676C1807.79 709.347 1797.21 715.384 1784.85 719.787C1772.49 724.048 1758.22 726.179 1742.02 726.179ZM1768.02 663.537C1781.37 663.537 1793.16 660.909 1803.39 655.653C1813.61 650.256 1821.64 643.011 1827.46 633.92C1833.29 624.83 1836.2 614.531 1836.2 603.026V568.295C1833.36 570.142 1829.45 571.847 1824.48 573.409C1819.65 574.83 1814.18 576.179 1808.07 577.457C1801.97 578.594 1795.86 579.659 1789.75 580.653C1783.64 581.506 1778.1 582.287 1773.13 582.997C1762.48 584.56 1753.17 587.045 1745.22 590.455C1737.26 593.864 1731.08 598.48 1726.68 604.304C1722.28 609.986 1720.08 617.088 1720.08 625.611C1720.08 637.969 1724.55 647.415 1733.5 653.949C1742.59 660.341 1754.1 663.537 1768.02 663.537ZM2193.42 580.653V392.727H2284.18V720H2197.04V660.554H2193.63C2186.24 679.73 2173.96 695.142 2156.77 706.79C2139.72 718.437 2118.91 724.261 2094.34 724.261C2072.47 724.261 2053.22 719.29 2036.6 709.347C2019.98 699.403 2006.98 685.27 1997.61 666.946C1988.37 648.622 1983.69 626.676 1983.54 601.108V392.727H2074.31V584.915C2074.45 604.233 2079.64 619.503 2089.87 630.724C2100.09 641.946 2113.8 647.557 2130.99 647.557C2141.93 647.557 2152.15 645.071 2161.67 640.099C2171.19 634.986 2178.86 627.457 2184.68 617.514C2190.65 607.571 2193.56 595.284 2193.42 580.653ZM2434.35 283.636V720H2343.59V283.636H2434.35ZM2667.94 392.727V460.909H2470.85V392.727H2667.94ZM2515.6 314.318H2606.36V619.432C2606.36 627.812 2607.64 634.347 2610.2 639.034C2612.76 643.58 2616.31 646.776 2620.85 648.622C2625.54 650.469 2630.94 651.392 2637.05 651.392C2641.31 651.392 2645.57 651.037 2649.83 650.327C2654.09 649.474 2657.36 648.835 2659.63 648.409L2673.91 715.952C2669.36 717.372 2662.97 719.006 2654.73 720.852C2646.49 722.841 2636.48 724.048 2624.69 724.474C2602.81 725.327 2583.64 722.415 2567.16 715.739C2550.82 709.062 2538.11 698.693 2529.02 684.631C2519.93 670.568 2515.45 652.812 2515.6 631.364V314.318ZM2713.87 842.727V392.727H2803.36V447.699H2807.4C2811.38 438.892 2817.13 429.943 2824.66 420.852C2832.33 411.619 2842.28 403.949 2854.49 397.841C2866.85 391.591 2882.19 388.466 2900.51 388.466C2924.38 388.466 2946.4 394.716 2966.57 407.216C2986.74 419.574 3002.86 438.253 3014.93 463.253C3027.01 488.111 3033.04 519.29 3033.04 556.79C3033.04 593.295 3027.15 624.119 3015.36 649.261C3003.71 674.261 2987.8 693.224 2967.63 706.151C2947.6 718.935 2925.16 725.327 2900.3 725.327C2882.69 725.327 2867.7 722.415 2855.34 716.591C2843.13 710.767 2833.11 703.452 2825.3 694.645C2817.49 685.696 2811.52 676.676 2807.4 667.585H2804.63V842.727H2713.87ZM2802.72 556.364C2802.72 575.824 2805.42 592.798 2810.81 607.287C2816.21 621.776 2824.02 633.068 2834.25 641.165C2844.48 649.119 2856.91 653.097 2871.54 653.097C2886.31 653.097 2898.81 649.048 2909.04 640.952C2919.26 632.713 2927.01 621.349 2932.26 606.861C2937.66 592.23 2940.36 575.398 2940.36 556.364C2940.36 537.472 2937.73 520.852 2932.47 506.506C2927.22 492.159 2919.48 480.937 2909.25 472.841C2899.02 464.744 2886.45 460.696 2871.54 460.696C2856.76 460.696 2844.26 464.602 2834.04 472.415C2823.95 480.227 2816.21 491.307 2810.81 505.653C2805.42 520 2802.72 536.903 2802.72 556.364ZM3173.68 726.179C3152.8 726.179 3134.19 722.557 3117.85 715.312C3101.52 707.926 3088.59 697.06 3079.08 682.713C3069.7 668.224 3065.01 650.185 3065.01 628.594C3065.01 610.412 3068.35 595.142 3075.03 582.784C3081.7 570.426 3090.79 560.483 3102.3 552.955C3113.81 545.426 3126.87 539.744 3141.5 535.909C3156.28 532.074 3171.76 529.375 3187.95 527.812C3206.99 525.824 3222.33 523.977 3233.98 522.273C3245.62 520.426 3254.08 517.727 3259.33 514.176C3264.59 510.625 3267.22 505.369 3267.22 498.409V497.131C3267.22 483.636 3262.95 473.196 3254.43 465.81C3246.05 458.423 3234.12 454.73 3218.64 454.73C3202.3 454.73 3189.3 458.352 3179.64 465.597C3169.99 472.699 3163.59 481.648 3160.47 492.443L3076.52 485.625C3080.78 465.739 3089.16 448.551 3101.66 434.062C3114.16 419.432 3130.28 408.21 3150.03 400.398C3169.91 392.443 3192.93 388.466 3219.06 388.466C3237.24 388.466 3254.64 390.597 3271.26 394.858C3288.02 399.119 3302.87 405.724 3315.79 414.673C3328.86 423.622 3339.16 435.128 3346.69 449.19C3354.22 463.111 3357.98 479.801 3357.98 499.261V720H3271.9V674.616H3269.35C3264.09 684.844 3257.06 693.864 3248.25 701.676C3239.45 709.347 3228.86 715.384 3216.5 719.787C3204.15 724.048 3189.87 726.179 3173.68 726.179ZM3199.67 663.537C3213.02 663.537 3224.81 660.909 3235.04 655.653C3245.27 650.256 3253.29 643.011 3259.12 633.92C3264.94 624.83 3267.85 614.531 3267.85 603.026V568.295C3265.01 570.142 3261.11 571.847 3256.14 573.409C3251.31 574.83 3245.84 576.179 3239.73 577.457C3233.62 578.594 3227.51 579.659 3221.41 580.653C3215.3 581.506 3209.76 582.287 3204.79 582.997C3194.13 584.56 3184.83 587.045 3176.87 590.455C3168.92 593.864 3162.74 598.48 3158.34 604.304C3153.93 609.986 3151.73 617.088 3151.73 625.611C3151.73 637.969 3156.21 647.415 3165.16 653.949C3174.25 660.341 3185.75 663.537 3199.67 663.537ZM3459.52 842.727C3448.01 842.727 3437.22 841.804 3427.13 839.957C3417.19 838.253 3408.95 836.051 3402.42 833.352L3422.87 765.597C3433.53 768.864 3443.11 770.639 3451.64 770.923C3460.3 771.207 3467.76 769.219 3474.01 764.957C3480.4 760.696 3485.58 753.452 3489.56 743.224L3494.89 729.375L3377.49 392.727H3472.94L3540.7 633.068H3544.11L3612.5 392.727H3708.6L3581.39 755.369C3575.29 772.983 3566.98 788.324 3556.47 801.392C3546.1 814.602 3532.96 824.759 3517.05 831.861C3501.14 839.105 3481.96 842.727 3459.52 842.727Z" fill="black"/>
</svg>
