<svg width="600" height="210" viewBox="0 0 600 210" fill="none" xmlns="http://www.w3.org/2000/svg">
<path d="M30.5739 138.908L27 71.0993L48.9932 67.9358L49.6805 98.7454C49.8179 105.21 49.9554 112.087 49.1306 118.827C49.6805 118.827 50.0928 118.964 50.6427 118.964C65.2131 103.147 70.0241 89.8051 69.0619 71.0993L87.7561 68.2109C90.0929 94.8942 72.9107 115.663 48.1684 137.67L30.5739 138.908Z" fill="black"/>
<path d="M134.399 139.733L133.987 125.704L132.612 125.566C124.915 134.919 117.355 140.146 109.382 140.146C98.1105 140.146 90.138 129.83 90.138 113.875C90.138 92.1433 105.671 67.9358 137.423 67.9358C143.609 67.9358 153.231 68.8986 162.715 71.6495L155.98 111.949C154.605 120.202 153.918 124.741 152.956 135.607L134.399 139.733ZM135.499 111.537L140.172 82.2402C137.011 80.7273 133.712 80.3146 131.375 80.3146C119.691 80.3146 111.994 94.2064 111.994 108.648C111.994 117.314 114.743 123.503 119.966 123.503C124.365 123.503 130.413 118.414 135.499 111.537Z" fill="black"/>
<path d="M241.787 67.2481L234.227 112.362C233.539 117.176 232.027 127.767 231.34 136.157L212.508 140.008V125.154L211.134 125.016C202.749 134.506 194.226 140.283 185.429 140.283C176.22 140.283 168.522 133.819 170.859 119.239L174.433 96.9573C175.807 88.2921 177.044 79.7645 177.869 71.6495L200.137 67.2481L192.165 115.113C191.202 120.615 194.089 123.503 197.663 123.503C201.787 123.503 207.972 119.239 213.745 111.124L216.357 96.6822C217.457 90.2177 218.831 80.0396 219.656 71.6495L241.787 67.2481Z" fill="black"/>
<path d="M247.04 138.908L259.274 63.3969C260.648 55.1444 262.023 46.3416 262.848 37.2638L285.116 33L271.782 114.7C270.683 121.99 269.583 128.317 268.621 137.257L247.04 138.908Z" fill="black"/>
<path d="M291.352 118.689L297.263 83.203H286.816L289.153 74.1252C299.874 70.9618 306.61 64.2222 312.658 53.2188L324.204 52.8061L319.806 70.9618L340.974 68.8986L336.85 83.203H317.881L312.52 115.113C311.558 121.577 313.895 125.016 318.431 125.016C321.318 125.016 325.304 123.916 328.74 121.44L332.864 127.354C325.579 137.12 315.407 140.146 307.572 140.146C295.063 140.146 289.29 131.893 291.352 118.689Z" fill="black"/>
<path d="M369.842 95.857L365.169 125.291C369.017 126.666 372.179 127.079 374.516 127.079C386.887 127.079 394.172 112.775 394.172 98.8829C394.172 89.6675 391.148 84.1658 385.787 84.1658C380.976 84.1658 375.34 88.7047 369.842 95.857ZM362.832 139.045L361.457 147.023C360.632 151.562 358.983 162.84 358.296 171.643L336.577 173.018L349.224 96.4071C350.598 87.7419 351.56 79.902 352.385 71.6495L371.629 67.1106L371.217 81.8276L372.729 81.9652C380.564 72.8873 388.536 67.3856 396.509 67.3856C407.505 67.3856 416.165 77.2887 416.165 93.7938C416.165 118.001 397.471 139.733 371.904 139.733C368.742 139.733 365.306 139.458 362.832 139.045Z" fill="black"/>
<path d="M467.841 139.733L467.428 125.704L466.054 125.566C458.356 134.919 450.796 140.146 442.823 140.146C431.552 140.146 423.579 129.83 423.579 113.875C423.579 92.1433 439.112 67.9358 470.865 67.9358C477.05 67.9358 486.672 68.8986 496.157 71.6495L489.421 111.949C488.047 120.202 487.359 124.741 486.397 135.607L467.841 139.733ZM468.94 111.537L473.614 82.2402C470.452 80.7273 467.153 80.3146 464.816 80.3146C453.133 80.3146 445.435 94.2064 445.435 108.648C445.435 117.314 448.184 123.503 453.408 123.503C457.806 123.503 463.854 118.414 468.94 111.537Z" fill="black"/>
<path d="M498.664 176.182L482.444 168.342C492.616 155.826 501.001 147.16 509.523 138.358L506.087 71.0993L527.805 67.9358L528.492 98.7454C528.63 104.247 528.63 111.537 528.08 118.551H529.592C541.139 104.797 548.974 89.8051 548.011 71.0993L566.843 68.2109C568.905 95.4443 550.348 113.737 528.63 137.257C517.771 149.086 506.774 163.941 498.664 176.182Z" fill="black"/>
</svg>
