<svg width="650" height="203" viewBox="0 0 650 203" fill="none" xmlns="http://www.w3.org/2000/svg">
<path d="M199.206 101.103C199.206 143.685 164.685 178.206 122.103 178.206C79.5201 178.206 45 143.685 45 101.103C45 58.5201 79.5201 24 122.103 24C164.685 24 199.206 58.5201 199.206 101.103Z" fill="black"/>
<path d="M105.482 67.4299L121.745 118.554H122.37L138.666 67.4299H154.437L131.241 134.72H112.907L89.6777 67.4299H105.482Z" fill="white"/>
<path d="M260.581 69L276.616 119.404H277.231L293.298 69H308.847L285.978 135.341H267.902L245 69H260.581Z" fill="black"/>
<path d="M323.231 136.281C320.057 136.281 317.228 135.73 314.744 134.629C312.261 133.506 310.296 131.854 308.849 129.673C307.423 127.47 306.711 124.727 306.711 121.445C306.711 118.681 307.218 116.359 308.233 114.48C309.248 112.601 310.63 111.09 312.38 109.945C314.129 108.801 316.116 107.937 318.34 107.354C320.586 106.771 322.94 106.36 325.402 106.123C328.296 105.82 330.628 105.54 332.399 105.28C334.169 105 335.454 104.589 336.253 104.05C337.052 103.51 337.452 102.711 337.452 101.652V101.458C337.452 99.4065 336.804 97.8192 335.508 96.6963C334.234 95.5733 332.42 95.0118 330.066 95.0118C327.583 95.0118 325.607 95.5625 324.138 96.6639C322.67 97.7436 321.698 99.1042 321.223 100.745L308.46 99.7088C309.108 96.6855 310.382 94.0724 312.282 91.8697C314.183 89.6453 316.634 87.9393 319.636 86.7515C322.659 85.5422 326.158 84.9375 330.131 84.9375C332.895 84.9375 335.541 85.2614 338.067 85.9093C340.616 86.5572 342.872 87.5614 344.838 88.9219C346.824 90.2824 348.39 92.0316 349.535 94.1696C350.679 96.2859 351.252 98.8234 351.252 101.782V135.341H338.165V128.442H337.776C336.977 129.997 335.908 131.368 334.569 132.556C333.23 133.722 331.621 134.64 329.742 135.309C327.864 135.957 325.693 136.281 323.231 136.281ZM327.183 126.757C329.213 126.757 331.006 126.358 332.561 125.559C334.116 124.738 335.336 123.637 336.221 122.255C337.106 120.872 337.549 119.307 337.549 117.558V112.277C337.117 112.558 336.523 112.817 335.768 113.055C335.033 113.271 334.202 113.476 333.273 113.67C332.345 113.843 331.416 114.005 330.487 114.156C329.559 114.286 328.717 114.405 327.961 114.513C326.341 114.75 324.927 115.128 323.717 115.646C322.508 116.165 321.569 116.866 320.899 117.752C320.23 118.616 319.895 119.696 319.895 120.991C319.895 122.87 320.575 124.306 321.936 125.3C323.318 126.271 325.067 126.757 327.183 126.757Z" fill="black"/>
<path d="M391.858 114.156V85.5854H405.658V135.341H392.409V126.304H391.89C390.768 129.219 388.9 131.562 386.286 133.333C383.695 135.104 380.531 135.989 376.795 135.989C373.47 135.989 370.543 135.233 368.017 133.722C365.49 132.21 363.514 130.061 362.089 127.276C360.685 124.49 359.972 121.153 359.951 117.266V85.5854H373.75V114.804C373.772 117.741 374.56 120.063 376.115 121.769C377.67 123.475 379.754 124.328 382.367 124.328C384.03 124.328 385.585 123.95 387.032 123.194C388.478 122.417 389.645 121.272 390.53 119.76C391.437 118.249 391.88 116.381 391.858 114.156Z" fill="black"/>
<path d="M428.488 69V135.341H414.689V69H428.488Z" fill="black"/>
<path d="M464.001 85.5854V95.9512H434.037V85.5854H464.001ZM440.84 73.6646H454.639V120.052C454.639 121.326 454.834 122.319 455.222 123.032C455.611 123.723 456.151 124.209 456.842 124.49C457.555 124.77 458.375 124.911 459.304 124.911C459.952 124.911 460.6 124.857 461.248 124.749C461.896 124.619 462.392 124.522 462.738 124.457L464.908 134.726C464.217 134.942 463.245 135.19 461.993 135.471C460.74 135.773 459.218 135.957 457.425 136.022C454.1 136.151 451.184 135.709 448.679 134.694C446.196 133.679 444.263 132.102 442.881 129.964C441.499 127.826 440.818 125.127 440.84 121.866V73.6646Z" fill="black"/>
<path d="M470.983 154V85.5854H484.589V93.9428H485.204C485.809 92.6039 486.683 91.2434 487.828 89.8613C488.994 88.4576 490.506 87.2914 492.363 86.3628C494.242 85.4126 496.574 84.9375 499.36 84.9375C502.988 84.9375 506.335 85.8877 509.402 87.7881C512.468 89.6669 514.919 92.5067 516.755 96.3075C518.591 100.087 519.509 104.827 519.509 110.528C519.509 116.078 518.612 120.764 516.82 124.587C515.049 128.388 512.63 131.271 509.564 133.236C506.519 135.179 503.107 136.151 499.328 136.151C496.65 136.151 494.371 135.709 492.493 134.823C490.635 133.938 489.113 132.826 487.925 131.487C486.737 130.126 485.83 128.755 485.204 127.373H484.783V154H470.983ZM484.491 110.463C484.491 113.422 484.902 116.003 485.722 118.205C486.543 120.408 487.731 122.125 489.286 123.356C490.84 124.565 492.73 125.17 494.954 125.17C497.2 125.17 499.101 124.554 500.656 123.324C502.211 122.071 503.387 120.343 504.187 118.141C505.007 115.916 505.417 113.357 505.417 110.463C505.417 107.591 505.018 105.065 504.219 102.883C503.42 100.702 502.243 98.9962 500.688 97.7652C499.133 96.5343 497.222 95.9188 494.954 95.9188C492.708 95.9188 490.808 96.5127 489.253 97.7005C487.72 98.8882 486.543 100.573 485.722 102.754C484.902 104.935 484.491 107.505 484.491 110.463Z" fill="black"/>
<path d="M540.89 136.281C537.715 136.281 534.886 135.73 532.403 134.629C529.919 133.506 527.954 131.854 526.507 129.673C525.082 127.47 524.369 124.727 524.369 121.445C524.369 118.681 524.877 116.359 525.892 114.48C526.907 112.601 528.289 111.09 530.038 109.945C531.787 108.801 533.774 107.937 535.998 107.354C538.244 106.771 540.598 106.36 543.06 106.123C545.954 105.82 548.286 105.54 550.057 105.28C551.828 105 553.113 104.589 553.912 104.05C554.711 103.51 555.11 102.711 555.11 101.652V101.458C555.11 99.4065 554.462 97.8192 553.167 96.6963C551.893 95.5733 550.079 95.0118 547.725 95.0118C545.241 95.0118 543.265 95.5625 541.797 96.6639C540.328 97.7436 539.356 99.1042 538.881 100.745L526.118 99.7088C526.766 96.6855 528.04 94.0724 529.941 91.8697C531.841 89.6453 534.292 87.9393 537.294 86.7515C540.317 85.5422 543.816 84.9375 547.789 84.9375C550.554 84.9375 553.199 85.2614 555.726 85.9093C558.274 86.5572 560.531 87.5614 562.496 88.9219C564.483 90.2824 566.048 92.0316 567.193 94.1696C568.338 96.2859 568.91 98.8234 568.91 101.782V135.341H555.823V128.442H555.434C554.635 129.997 553.566 131.368 552.227 132.556C550.888 133.722 549.28 134.64 547.401 135.309C545.522 135.957 543.352 136.281 540.89 136.281ZM544.842 126.757C546.872 126.757 548.664 126.358 550.219 125.559C551.774 124.738 552.994 123.637 553.879 122.255C554.765 120.872 555.208 119.307 555.208 117.558V112.277C554.776 112.558 554.182 112.817 553.426 113.055C552.692 113.271 551.86 113.476 550.932 113.67C550.003 113.843 549.074 114.005 548.146 114.156C547.217 114.286 546.375 114.405 545.619 114.513C543.999 114.75 542.585 115.128 541.376 115.646C540.166 116.165 539.227 116.866 538.557 117.752C537.888 118.616 537.553 119.696 537.553 120.991C537.553 122.87 538.233 124.306 539.594 125.3C540.976 126.271 542.725 126.757 544.842 126.757Z" fill="black"/>
<path d="M584.347 154C582.598 154 580.956 153.86 579.423 153.579C577.911 153.32 576.659 152.985 575.665 152.575L578.775 142.274C580.395 142.77 581.853 143.04 583.148 143.083C584.466 143.127 585.599 142.824 586.55 142.176C587.521 141.529 588.31 140.427 588.914 138.872L589.724 136.767L571.875 85.5854H586.388L596.689 122.125H597.207L607.605 85.5854H622.215L602.876 140.719C601.947 143.397 600.684 145.729 599.086 147.716C597.509 149.724 595.512 151.268 593.093 152.348C590.674 153.449 587.759 154 584.347 154Z" fill="black"/>
</svg>
