<svg width="600" height="429" viewBox="0 0 600 429" fill="none" xmlns="http://www.w3.org/2000/svg">
<ellipse cx="299.59" cy="99.1112" rx="99.1112" ry="99.1112" fill="black"/>
<g opacity="0.98">
<path d="M232.69 57.6906C232.69 34.7427 240.442 33.0352 263.25 33.0352H340.358C363.166 33.0352 367.316 37.3428 367.316 60.2907V140.151C367.316 163.099 363.166 171.791 340.358 171.791L257.468 170.139C234.661 170.139 232.69 160.876 232.69 137.928V57.6906Z" fill="black"/>
<path d="M267.06 149.169L262.479 61.7681L290.67 57.6906L291.551 97.4022C291.728 105.734 291.904 114.599 290.847 123.286C291.551 123.286 292.08 123.463 292.785 123.463C311.462 103.075 317.629 85.8787 316.395 61.7681L340.358 58.0452C343.354 92.4382 321.329 119.208 289.613 147.573L267.06 149.169Z" fill="white"/>
</g>
<path d="M30.5739 357.908L27 290.099L48.9932 286.936L49.6805 317.745C49.8179 324.21 49.9554 331.087 49.1306 337.827C49.6805 337.827 50.0928 337.964 50.6427 337.964C65.2131 322.147 70.0241 308.805 69.0619 290.099L87.7561 287.211C90.0929 313.894 72.9107 334.663 48.1684 356.67L30.5739 357.908Z" fill="black"/>
<path d="M134.399 358.733L133.987 344.704L132.612 344.566C124.915 353.919 117.355 359.146 109.382 359.146C98.1105 359.146 90.138 348.83 90.138 332.875C90.138 311.143 105.671 286.936 137.423 286.936C143.609 286.936 153.231 287.899 162.715 290.649L155.98 330.949C154.605 339.202 153.918 343.741 152.956 354.607L134.399 358.733ZM135.499 330.537L140.172 301.24C137.011 299.727 133.712 299.315 131.375 299.315C119.691 299.315 111.994 313.206 111.994 327.648C111.994 336.314 114.743 342.503 119.966 342.503C124.365 342.503 130.413 337.414 135.499 330.537Z" fill="black"/>
<path d="M241.787 286.248L234.227 331.362C233.539 336.176 232.027 346.767 231.34 355.157L212.508 359.008V344.154L211.134 344.016C202.749 353.506 194.226 359.283 185.429 359.283C176.22 359.283 168.522 352.819 170.859 338.239L174.433 315.957C175.807 307.292 177.044 298.764 177.869 290.649L200.137 286.248L192.165 334.113C191.202 339.615 194.089 342.503 197.663 342.503C201.787 342.503 207.972 338.239 213.745 330.124L216.357 315.682C217.457 309.218 218.831 299.04 219.656 290.649L241.787 286.248Z" fill="black"/>
<path d="M247.04 357.908L259.274 282.397C260.648 274.144 262.023 265.342 262.848 256.264L285.116 252L271.782 333.7C270.683 340.99 269.583 347.317 268.621 356.257L247.04 357.908Z" fill="black"/>
<path d="M291.352 337.689L297.263 302.203H286.816L289.153 293.125C299.874 289.962 306.61 283.222 312.658 272.219L324.204 271.806L319.806 289.962L340.974 287.899L336.85 302.203H317.881L312.52 334.113C311.558 340.577 313.895 344.016 318.431 344.016C321.318 344.016 325.304 342.916 328.74 340.44L332.864 346.354C325.579 356.12 315.407 359.146 307.572 359.146C295.063 359.146 289.29 350.893 291.352 337.689Z" fill="black"/>
<path d="M369.842 314.857L365.169 344.291C369.017 345.666 372.179 346.079 374.516 346.079C386.887 346.079 394.172 331.775 394.172 317.883C394.172 308.668 391.148 303.166 385.787 303.166C380.976 303.166 375.34 307.705 369.842 314.857ZM362.832 358.045L361.457 366.023C360.632 370.562 358.983 381.84 358.296 390.643L336.577 392.018L349.224 315.407C350.598 306.742 351.56 298.902 352.385 290.649L371.629 286.111L371.217 300.828L372.729 300.965C380.564 291.887 388.536 286.386 396.509 286.386C407.505 286.386 416.165 296.289 416.165 312.794C416.165 337.001 397.471 358.733 371.904 358.733C368.742 358.733 365.306 358.458 362.832 358.045Z" fill="black"/>
<path d="M467.841 358.733L467.428 344.704L466.054 344.566C458.356 353.919 450.796 359.146 442.823 359.146C431.552 359.146 423.579 348.83 423.579 332.875C423.579 311.143 439.112 286.936 470.865 286.936C477.05 286.936 486.672 287.899 496.157 290.649L489.421 330.949C488.047 339.202 487.359 343.741 486.397 354.607L467.841 358.733ZM468.94 330.537L473.614 301.24C470.452 299.727 467.153 299.315 464.816 299.315C453.133 299.315 445.435 313.206 445.435 327.648C445.435 336.314 448.184 342.503 453.408 342.503C457.806 342.503 463.854 337.414 468.94 330.537Z" fill="black"/>
<path d="M498.664 395.182L482.444 387.342C492.616 374.826 501.001 366.16 509.523 357.358L506.087 290.099L527.805 286.936L528.492 317.745C528.63 323.247 528.63 330.537 528.08 337.551H529.592C541.139 323.797 548.974 308.805 548.011 290.099L566.843 287.211C568.905 314.444 550.348 332.737 528.63 356.257C517.771 368.086 506.774 382.941 498.664 395.182Z" fill="black"/>
</svg>
